<?xml version="1.0" standalone="no"?>
<!DOCTYPE svg PUBLIC "-//W3C//DTD SVG 20010904//EN"
 "http://www.w3.org/TR/2001/REC-SVG-20010904/DTD/svg10.dtd">
<svg version="1.0" xmlns="http://www.w3.org/2000/svg"
 width="1600.000000pt" height="1600.000000pt" viewBox="0 0 1600.000000 1600.000000"
 preserveAspectRatio="xMidYMid meet">
<metadata>
Created by potrace 1.14, written by Peter Selinger 2001-2017
</metadata>
<g transform="translate(0.000000,1600.000000) scale(0.100000,-0.100000)"
fill="#000000" stroke="none">
<path d="M11967 14753 c-5 -4 -61 -11 -125 -15 -64 -4 -169 -12 -232 -18 -63
-6 -164 -15 -225 -20 -60 -5 -162 -14 -225 -20 -63 -6 -164 -15 -225 -20 -60
-5 -162 -14 -225 -20 -63 -6 -169 -15 -235 -20 -66 -5 -174 -14 -240 -20 -66
-6 -174 -15 -240 -20 -222 -18 -315 -31 -360 -50 -43 -18 -74 -23 -185 -31
-63 -5 -164 -13 -225 -18 -164 -15 -437 -38 -725 -61 -69 -5 -174 -14 -235
-20 -60 -5 -171 -14 -245 -20 -74 -6 -182 -15 -240 -20 -58 -5 -166 -14 -240
-20 -74 -6 -184 -15 -245 -20 -60 -6 -166 -14 -235 -20 -69 -5 -177 -14 -240
-20 -63 -5 -171 -14 -240 -20 -69 -5 -179 -14 -245 -20 -66 -6 -176 -15 -245
-20 -69 -6 -177 -15 -240 -20 -63 -6 -176 -15 -250 -21 -74 -5 -184 -14 -245
-19 -60 -6 -168 -15 -240 -20 -71 -5 -186 -14 -255 -20 -69 -6 -179 -15 -245
-20 -66 -6 -172 -14 -235 -20 -63 -5 -180 -14 -260 -20 -80 -6 -194 -15 -255
-20 -330 -28 -387 -32 -465 -33 -47 -1 -130 0 -185 1 -55 2 -162 -2 -237 -7
-337 -26 -420 -32 -528 -37 -63 -2 -124 -9 -135 -14 -11 -5 -74 -12 -140 -15
-66 -2 -176 -9 -245 -14 -69 -6 -188 -15 -265 -21 -77 -6 -196 -15 -265 -20
-69 -5 -188 -14 -265 -19 -77 -6 -198 -15 -270 -21 -71 -6 -193 -15 -270 -21
-381 -27 -419 -32 -442 -55 -18 -18 -18 -204 0 -204 6 0 28 -14 47 -30 19 -16
40 -30 45 -30 6 0 17 -9 25 -20 8 -11 20 -20 26 -20 6 0 25 -13 42 -30 18 -16
38 -30 45 -30 7 0 19 -9 27 -20 8 -11 19 -20 25 -20 5 0 26 -14 45 -30 19 -16
39 -30 43 -30 4 0 19 -11 33 -25 14 -14 29 -25 34 -25 5 0 19 -10 32 -22 13
-13 35 -29 51 -37 15 -8 27 -18 27 -23 0 -4 6 -8 13 -8 6 0 28 -14 47 -30 19
-16 40 -30 45 -30 6 0 17 -9 25 -20 8 -11 20 -20 26 -20 6 0 25 -13 42 -30 18
-16 36 -30 42 -30 6 0 24 -13 42 -30 17 -16 35 -30 40 -30 5 0 20 -11 34 -25
14 -14 29 -25 34 -25 5 0 20 -11 34 -25 14 -14 29 -25 33 -25 4 0 24 -14 43
-30 19 -16 39 -30 44 -30 5 0 16 -8 25 -18 9 -10 32 -29 51 -42 19 -14 44 -32
54 -42 11 -10 24 -18 29 -18 5 0 17 -8 26 -18 9 -10 32 -29 51 -42 19 -14 44
-32 54 -42 11 -10 25 -18 31 -18 6 0 17 -9 25 -20 8 -11 20 -20 27 -20 7 0 13
-4 13 -10 0 -5 6 -10 13 -10 7 0 19 -9 27 -20 8 -11 19 -20 25 -20 6 0 20 -8
31 -18 10 -10 35 -29 54 -42 19 -13 44 -32 54 -42 11 -10 24 -18 28 -18 5 0
20 -11 34 -25 14 -14 29 -25 34 -25 5 0 20 -11 34 -25 14 -14 29 -25 33 -25 5
0 29 -18 53 -40 24 -22 49 -40 55 -40 6 0 17 -9 25 -20 8 -11 20 -20 27 -20 8
0 18 -12 24 -27 8 -20 9 -898 5 -3040 l-7 -3013 41 -42 40 -42 0 -758 c0 -682
-2 -758 -16 -758 -18 0 -30 12 -64 60 -13 19 -27 37 -30 40 -3 3 -17 21 -30
40 -13 19 -31 42 -40 50 -9 8 -27 31 -40 50 -13 19 -32 42 -42 51 -10 9 -18
20 -18 26 0 5 -18 29 -40 53 -22 24 -40 50 -40 58 0 11 -9 13 -38 8 -20 -4
-55 -9 -77 -12 -22 -3 -49 -9 -60 -14 -11 -5 -39 -11 -62 -14 -24 -3 -62 -9
-85 -12 -24 -3 -52 -9 -63 -14 -11 -5 -38 -11 -60 -14 -112 -15 -131 -19 -139
-27 -6 -5 -31 -9 -57 -9 -26 0 -51 -4 -54 -10 -3 -5 -23 -10 -45 -10 -45 0
-48 -5 -56 -100 -6 -61 -4 -70 15 -91 11 -12 21 -26 21 -31 0 -4 13 -22 30
-40 16 -17 30 -37 30 -44 0 -8 3 -14 8 -14 4 0 18 -18 32 -40 14 -22 28 -40
31 -40 4 0 12 -13 19 -30 7 -16 15 -30 19 -30 4 0 14 -12 23 -28 9 -15 28 -40
42 -57 14 -16 26 -35 26 -40 0 -6 9 -17 20 -25 11 -8 20 -20 20 -26 0 -6 14
-25 30 -42 17 -18 30 -38 30 -45 0 -7 9 -19 20 -27 11 -8 20 -19 20 -25 0 -6
8 -20 18 -31 10 -10 29 -35 42 -54 13 -19 32 -44 42 -54 10 -11 18 -25 18 -31
0 -6 9 -17 20 -25 11 -8 20 -19 20 -25 0 -5 14 -26 30 -45 16 -19 30 -40 30
-45 0 -6 9 -17 20 -25 11 -8 20 -19 20 -25 0 -5 12 -23 26 -40 14 -16 33 -42
42 -57 9 -16 20 -28 24 -28 4 0 8 -6 8 -14 0 -7 14 -27 30 -44 17 -18 30 -35
30 -39 0 -5 14 -24 30 -43 16 -19 30 -38 30 -43 0 -4 14 -21 30 -39 17 -17 30
-37 30 -44 0 -8 4 -14 8 -14 5 0 15 -12 23 -27 8 -16 22 -35 31 -44 10 -9 18
-21 18 -28 0 -6 5 -11 10 -11 6 0 10 -6 10 -13 0 -7 9 -19 20 -27 11 -8 20
-20 20 -28 0 -7 11 -24 25 -38 14 -14 25 -29 25 -34 0 -5 11 -20 25 -34 14
-14 25 -30 25 -36 0 -5 14 -24 30 -42 17 -17 30 -37 30 -44 0 -8 4 -14 8 -14
5 0 15 -12 23 -27 8 -16 22 -35 31 -44 10 -9 18 -20 18 -25 0 -5 14 -25 30
-44 16 -19 30 -40 30 -45 0 -6 9 -17 20 -25 11 -8 20 -20 20 -27 0 -7 13 -27
30 -45 16 -17 30 -36 30 -42 0 -6 9 -18 20 -26 11 -8 20 -19 20 -25 0 -5 14
-26 30 -45 16 -19 30 -41 30 -47 0 -7 4 -13 8 -13 5 0 15 -12 23 -27 8 -15 26
-41 41 -57 16 -16 28 -35 28 -42 0 -8 4 -14 8 -14 5 0 15 -12 23 -27 8 -16 24
-38 37 -51 12 -13 22 -27 22 -31 0 -4 11 -21 25 -37 14 -16 25 -34 25 -39 0
-6 9 -17 20 -25 11 -8 20 -19 20 -25 0 -5 14 -26 30 -45 16 -19 30 -40 30 -45
0 -6 9 -17 20 -25 11 -8 20 -19 20 -25 0 -5 14 -26 30 -45 16 -19 30 -40 30
-45 0 -6 9 -17 20 -25 11 -8 20 -19 20 -25 0 -5 14 -26 30 -45 16 -19 30 -40
30 -45 0 -6 9 -17 20 -25 11 -8 20 -19 20 -25 0 -5 14 -26 30 -45 16 -19 30
-41 30 -47 0 -7 4 -13 8 -13 4 0 15 -12 24 -27 9 -16 28 -41 42 -58 14 -16 26
-36 26 -42 0 -16 62 -17 77 -2 6 6 71 10 171 10 97 -1 163 3 167 9 3 6 26 10
50 10 24 0 47 5 50 10 3 6 15 10 26 10 10 0 19 5 19 10 0 6 7 10 16 10 9 0 29
14 44 30 17 18 38 30 54 30 14 0 26 5 26 10 0 6 18 10 40 10 22 0 40 5 40 10
0 6 18 10 40 10 22 0 40 5 40 10 0 6 11 10 24 10 14 0 28 5 32 11 4 7 6 59 5
117 -1 86 -5 108 -19 121 -10 9 -29 32 -42 51 -14 19 -37 48 -52 64 -16 16
-28 33 -28 38 0 6 -13 23 -30 38 -16 15 -30 33 -30 40 0 7 -13 25 -30 40 -16
15 -30 32 -30 37 0 5 -18 29 -40 53 -22 24 -40 48 -40 53 0 5 -13 22 -30 37
-16 15 -30 32 -30 37 0 5 -18 29 -40 53 -22 24 -40 48 -40 52 0 5 -13 22 -30
40 -16 17 -30 35 -30 40 0 6 -13 23 -30 38 -16 15 -30 32 -30 38 0 5 -12 22
-28 38 -15 16 -38 45 -52 64 -13 19 -32 42 -42 51 -10 9 -18 20 -18 26 0 5
-18 29 -40 53 -22 24 -40 48 -40 53 0 5 -13 22 -30 37 -16 15 -30 32 -30 37 0
5 -18 29 -40 53 -22 24 -40 48 -40 53 0 4 -10 18 -22 31 -33 34 -58 65 -58 72
0 4 -8 14 -18 23 -10 9 -29 32 -42 51 -13 19 -32 42 -42 51 -10 9 -18 21 -18
26 0 5 -20 31 -45 57 -25 27 -45 52 -45 56 0 4 -20 29 -45 56 -25 26 -45 52
-45 58 0 7 -9 18 -20 26 -20 14 -20 26 -20 1172 l0 1158 28 0 c15 0 33 5 40
12 9 9 12 635 12 2755 0 1681 4 2743 9 2743 5 0 16 -7 25 -15 21 -21 75 -19
95 4 9 10 35 21 59 25 23 3 61 9 83 12 59 9 89 38 89 86 0 42 -2 43 -32 27
-16 -8 -22 -8 -29 2 -4 7 -12 10 -16 5 -4 -5 -2 -11 5 -13 6 -3 12 -9 12 -14
0 -12 -67 -12 -75 1 -3 6 -17 7 -30 4 -12 -3 -26 -1 -30 6 -4 6 -16 8 -27 5
-17 -6 -19 -3 -16 27 3 37 18 41 33 9 10 -22 39 -28 50 -11 3 6 14 10 24 10 9
0 27 9 39 20 12 11 25 20 30 20 4 0 17 8 28 18 27 26 54 32 174 43 58 5 141
14 185 19 204 24 328 37 520 56 39 3 72 10 75 13 3 4 25 18 50 32 25 13 60 38
78 56 l33 32 -4 108 c-3 59 -8 125 -12 146 -6 33 -5 37 14 37 19 0 21 6 21 64
0 63 16 111 42 127 7 5 37 9 66 9 28 0 52 5 52 10 0 6 14 10 30 10 17 0 30 5
30 10 0 6 14 10 30 10 17 0 30 5 30 10 0 6 14 10 30 10 17 0 30 5 30 10 0 6
11 10 25 10 14 0 33 4 43 9 29 15 87 31 110 31 12 0 22 5 22 10 0 6 14 10 30
10 17 0 30 5 30 10 0 6 28 10 64 10 36 0 68 5 71 10 3 6 48 10 100 10 52 0 97
4 100 10 3 6 49 10 104 10 53 0 101 4 106 9 9 9 60 14 280 26 50 3 99 10 110
15 19 9 53 12 280 25 55 3 109 10 120 15 11 5 56 12 100 14 44 3 125 10 180
16 55 6 136 13 180 16 44 2 89 9 100 14 11 5 58 12 105 14 47 3 128 10 180 16
52 6 133 13 180 16 47 2 94 9 105 14 11 5 56 12 100 14 44 3 125 10 180 16 55
6 138 13 185 16 47 3 89 10 95 15 5 5 48 9 95 9 47 0 90 4 95 9 10 9 64 14
273 27 50 3 92 9 92 14 0 5 42 11 93 14 90 5 193 15 387 36 274 30 486 50 588
56 50 3 92 9 92 14 0 5 42 11 93 14 50 3 139 10 197 16 58 6 141 13 185 16 44
2 89 9 100 14 11 5 61 12 110 14 50 3 135 10 190 16 55 6 138 13 185 16 47 2
94 9 105 14 11 5 56 12 100 14 44 3 123 8 175 11 52 3 104 10 115 15 18 8 66
13 280 26 44 2 89 9 100 14 11 5 58 12 105 14 47 3 130 10 185 15 55 6 118 12
140 13 l40 3 7 -850 c3 -467 2 -1012 -3 -1210 -5 -198 -9 -1031 -9 -1851 l0
-1491 40 -27 40 -26 0 -890 c0 -490 -3 -890 -6 -890 -9 0 -68 43 -72 52 -2 4
-9 8 -16 8 -7 0 -21 8 -32 18 -10 9 -31 23 -46 31 -16 8 -28 18 -28 23 0 4 -6
8 -12 8 -7 0 -29 14 -48 30 -19 16 -41 30 -47 30 -7 0 -13 4 -13 8 0 5 -12 15
-27 23 -16 8 -35 22 -44 31 -9 10 -24 18 -33 18 -9 0 -16 4 -16 8 0 5 -12 15
-27 23 -16 8 -35 22 -44 31 -9 10 -23 18 -30 18 -8 0 -21 9 -29 20 -8 11 -19
20 -25 20 -6 0 -20 8 -31 18 -10 9 -31 23 -46 31 -16 8 -28 18 -28 23 0 4 -6
8 -12 8 -7 0 -26 11 -42 25 -16 13 -37 27 -47 30 -11 4 -19 10 -19 14 0 5 -13
14 -30 21 -16 7 -30 16 -30 21 0 5 -7 9 -15 9 -8 0 -15 5 -15 10 0 6 -5 10
-10 10 -6 0 -20 9 -32 20 -16 15 -36 20 -78 20 -31 0 -60 -4 -65 -9 -9 -9 -39
-13 -190 -27 -33 -3 -64 -10 -70 -15 -5 -5 -35 -9 -67 -9 -32 0 -58 -4 -58
-10 0 -5 -25 -10 -56 -10 -73 0 -84 -12 -84 -92 0 -60 2 -65 35 -96 20 -17 39
-32 43 -32 4 0 23 -14 42 -30 19 -16 40 -30 45 -30 6 0 17 -9 25 -20 8 -11 19
-20 25 -20 5 0 26 -14 45 -30 19 -16 40 -30 45 -30 6 0 17 -9 25 -20 8 -11 21
-20 30 -20 9 0 22 -9 30 -20 8 -11 20 -20 26 -20 6 0 25 -14 42 -30 18 -17 38
-30 45 -30 7 0 19 -9 27 -20 8 -11 19 -20 25 -20 5 0 26 -14 45 -30 19 -16 40
-30 45 -30 6 0 17 -9 25 -20 8 -11 19 -20 25 -20 5 0 26 -14 45 -30 19 -16 39
-30 44 -30 5 0 16 -8 25 -18 9 -9 28 -23 44 -31 15 -8 27 -18 27 -23 0 -4 6
-8 14 -8 7 0 27 -13 44 -30 18 -16 38 -30 45 -30 7 0 19 -9 27 -20 8 -11 20
-20 26 -20 6 0 25 -13 42 -30 18 -16 38 -30 45 -30 7 0 19 -9 27 -20 8 -11 19
-20 25 -20 5 0 26 -14 45 -30 19 -16 39 -30 44 -30 5 0 16 -8 25 -18 9 -9 28
-23 44 -31 15 -8 27 -18 27 -23 0 -4 6 -8 14 -8 7 0 27 -14 44 -30 18 -17 38
-30 45 -30 7 0 19 -9 27 -20 8 -11 19 -20 25 -20 5 0 26 -14 45 -30 19 -16 40
-30 45 -30 6 0 17 -9 25 -20 8 -11 19 -20 25 -20 5 0 26 -14 45 -30 19 -16 40
-30 45 -30 6 0 17 -9 25 -20 8 -11 20 -20 27 -20 7 0 27 -14 45 -30 17 -16 37
-30 44 -30 8 0 14 -4 14 -8 0 -5 12 -15 28 -23 15 -8 34 -22 43 -31 9 -10 20
-18 25 -18 5 0 23 -12 39 -26 17 -14 42 -33 58 -42 15 -9 27 -20 27 -24 0 -4
6 -8 13 -8 6 0 28 -14 47 -30 19 -16 40 -30 45 -30 6 0 17 -9 25 -20 8 -11 19
-20 25 -20 5 0 26 -14 45 -30 19 -16 39 -30 44 -30 5 0 16 -8 25 -18 9 -9 28
-23 44 -31 15 -8 27 -18 27 -23 0 -4 6 -8 14 -8 7 0 27 -13 44 -30 18 -16 38
-30 45 -30 7 0 19 -9 27 -20 8 -11 19 -20 25 -20 5 0 26 -14 45 -30 19 -16 40
-30 45 -30 6 0 17 -9 25 -20 8 -11 19 -20 25 -20 5 0 26 -14 45 -30 19 -16 40
-30 45 -30 6 0 17 -9 25 -20 8 -11 20 -20 26 -20 6 0 25 -13 42 -30 18 -16 38
-30 45 -30 7 0 19 -9 27 -20 8 -11 19 -20 25 -20 5 0 26 -14 45 -30 19 -16 40
-30 45 -30 6 0 17 -9 25 -20 8 -11 19 -20 25 -20 5 0 26 -14 45 -30 19 -16 40
-30 45 -30 6 0 17 -9 25 -20 8 -11 19 -20 25 -20 5 0 26 -14 45 -30 19 -16 39
-30 44 -30 5 0 16 -8 25 -18 9 -9 28 -23 44 -31 15 -8 27 -18 27 -23 0 -4 6
-8 14 -8 7 0 27 -13 44 -30 18 -16 38 -30 45 -30 7 0 19 -9 27 -20 13 -19 26
-20 192 -20 112 0 178 4 178 10 0 6 12 10 26 10 16 0 37 11 52 28 36 39 64 52
106 52 20 0 36 5 36 10 0 6 18 10 39 10 22 0 43 5 46 10 3 6 17 10 31 10 24 0
24 1 24 99 0 91 -2 100 -20 106 -11 4 -32 17 -45 31 -13 13 -30 24 -37 24 -8
0 -20 9 -28 20 -8 11 -22 20 -32 20 -10 0 -18 4 -18 8 0 5 -12 15 -27 23 -16
8 -35 22 -44 31 -9 10 -23 18 -30 18 -8 0 -21 9 -29 20 -8 11 -21 20 -29 20
-7 0 -21 8 -30 18 -9 9 -28 23 -43 31 -16 8 -28 18 -28 23 0 4 -8 8 -18 8 -10
0 -24 9 -32 20 -8 11 -21 20 -29 20 -7 0 -21 8 -30 18 -9 9 -28 23 -43 31 -16
8 -28 18 -28 23 0 4 -6 8 -13 8 -7 0 -22 8 -33 18 -10 9 -31 23 -46 31 -16 8
-28 18 -28 23 0 4 -6 8 -13 8 -7 0 -22 8 -33 17 -10 10 -31 24 -46 32 -16 8
-28 18 -28 23 0 4 -6 8 -13 8 -7 0 -22 8 -33 18 -10 9 -31 23 -46 31 -16 8
-28 18 -28 23 0 4 -6 8 -13 8 -7 0 -22 8 -33 18 -10 9 -31 23 -46 31 -16 8
-28 18 -28 23 0 4 -6 8 -13 8 -7 0 -22 8 -33 17 -10 10 -31 24 -46 32 -16 8
-28 18 -28 23 0 4 -6 8 -13 8 -7 0 -22 8 -33 18 -10 9 -31 23 -46 31 -16 8
-28 18 -28 23 0 4 -6 8 -12 8 -7 0 -26 11 -42 25 -16 13 -37 27 -47 30 -11 4
-19 11 -19 16 0 5 -6 9 -12 9 -7 0 -29 14 -48 30 -19 16 -41 30 -47 30 -7 0
-13 5 -13 10 0 6 -6 10 -12 10 -7 0 -29 14 -48 30 -19 16 -41 30 -47 30 -7 0
-13 5 -13 10 0 6 -6 10 -12 10 -7 0 -29 14 -48 30 -19 16 -41 30 -47 30 -7 0
-13 5 -13 10 0 6 -7 10 -15 10 -8 0 -15 5 -15 10 0 6 -7 10 -15 10 -8 0 -15 4
-15 8 0 5 -12 15 -27 23 -16 8 -34 19 -40 26 -10 9 -13 238 -13 1077 l0 1066
40 0 41 0 -1 1838 c0 1010 -1 2302 0 2870 l0 1032 58 0 c32 0 63 5 69 11 8 8
91 9 290 4 481 -12 765 -6 787 16 6 5 49 9 96 9 47 0 90 4 96 9 5 5 45 12 89
15 108 7 256 22 553 56 230 26 283 31 367 36 50 3 94 10 100 15 5 5 30 9 56 9
80 0 79 -1 79 116 0 104 0 104 -24 104 -14 0 -28 5 -31 10 -3 6 -17 10 -30 10
-13 0 -27 5 -30 10 -3 6 -17 10 -31 10 -13 0 -32 4 -42 9 -9 5 -51 19 -92 31
-41 12 -83 26 -92 31 -10 5 -29 9 -42 9 -14 0 -28 5 -31 10 -3 6 -15 10 -26
10 -10 0 -27 4 -37 9 -29 15 -87 31 -110 31 -12 0 -22 5 -22 10 0 6 -13 10
-30 10 -16 0 -30 5 -30 10 0 6 -13 10 -29 10 -17 0 -33 5 -36 10 -3 6 -19 10
-35 10 -16 0 -32 5 -35 10 -3 6 -17 10 -30 10 -13 0 -27 5 -30 10 -3 6 -19 10
-36 10 -16 0 -29 5 -29 10 0 6 -13 10 -30 10 -16 0 -30 5 -30 10 0 6 -15 10
-34 10 -19 0 -38 5 -41 10 -3 6 -17 10 -30 10 -13 0 -27 5 -30 10 -3 6 -19 10
-36 10 -16 0 -29 5 -29 10 0 6 -11 10 -25 10 -14 0 -33 4 -43 9 -9 5 -37 14
-62 21 -25 7 -53 16 -62 21 -10 5 -29 9 -43 9 -14 0 -25 5 -25 10 0 6 -11 10
-25 10 -14 0 -33 4 -43 9 -9 5 -37 14 -62 21 -25 7 -53 16 -62 21 -10 5 -29 9
-43 9 -14 0 -25 5 -25 10 0 6 -13 10 -30 10 -16 0 -30 5 -30 10 0 6 -13 10
-29 10 -17 0 -33 5 -36 10 -3 6 -19 10 -35 10 -16 0 -32 5 -35 10 -3 6 -17 10
-30 10 -13 0 -27 5 -30 10 -3 6 -17 10 -30 10 -13 0 -27 5 -30 10 -3 6 -19 10
-36 10 -16 0 -29 5 -29 10 0 6 -13 10 -29 10 -17 0 -33 5 -36 10 -3 6 -17 10
-30 10 -13 0 -27 5 -30 10 -3 6 -19 10 -35 10 -16 0 -32 5 -35 10 -3 6 -17 10
-30 10 -13 0 -27 5 -30 10 -3 6 -19 10 -36 10 -16 0 -29 5 -29 10 0 6 -13 10
-29 10 -17 0 -33 5 -36 10 -3 6 -17 10 -30 10 -13 0 -27 5 -30 10 -3 6 -19 10
-35 10 -16 0 -32 5 -35 10 -3 6 -19 10 -36 10 -16 0 -29 5 -29 10 0 6 -13 10
-30 10 -16 0 -30 5 -30 10 0 6 -13 10 -30 10 -16 0 -30 5 -30 10 0 6 -15 10
-34 10 -19 0 -38 5 -41 10 -3 6 -17 10 -30 10 -13 0 -27 5 -30 10 -3 6 -19 10
-36 10 -16 0 -29 5 -29 10 0 6 -13 10 -30 10 -16 0 -30 5 -30 10 0 6 -11 10
-25 10 -14 0 -33 4 -43 9 -9 5 -37 14 -62 21 -25 7 -53 16 -62 21 -10 5 -27 9
-37 9 -11 0 -23 5 -26 10 -3 6 -19 10 -36 10 -16 0 -29 5 -29 10 0 6 -11 10
-25 10 -14 0 -33 4 -43 9 -9 5 -37 15 -62 21 -25 7 -54 16 -65 21 -44 18 -285
36 -298 22z m-8687 -3403 c0 -10 -107 -7 -117 4 -4 3 21 6 55 6 34 0 62 -4 62
-10z"/>
</g>
</svg>
